<svg width="28" height="28" viewBox="0 0 28 28" fill="none" xmlns="http://www.w3.org/2000/svg">
<path d="M10 3C7.24211 3 5 5.24447 5 8.00527C5 10.7134 7.11579 12.9052 9.87368 13C9.95789 12.9895 10.0421 12.9895 10.1053 13C10.1263 13 10.1368 13 10.1579 13C10.1684 13 10.1684 13 10.1789 13C12.8737 12.9052 14.9895 10.7134 15 8.00527C15 5.24447 12.7579 3 10 3Z" fill="url(#paint0_linear_40003020_10444)"/>
<path d="M15.7727 16.358C12.6023 14.5473 7.43182 14.5473 4.23864 16.358C2.79545 17.1855 2 18.305 2 19.5024C2 20.6998 2.79545 21.8096 4.22727 22.6274C5.81818 23.5425 7.90909 24 10 24C12.0909 24 14.1818 23.5425 15.7727 22.6274C17.2045 21.7999 18 20.6901 18 19.483C17.9886 18.2856 17.2045 17.1758 15.7727 16.358Z" fill="url(#paint1_linear_40003020_10444)"/>
<path d="M23.0719 8.56508C23.2586 10.8284 21.6486 12.8117 19.4202 13.0801C19.4086 13.0801 19.4086 13.0801 19.3969 13.0801H19.3619C19.2919 13.0801 19.2219 13.0801 19.1636 13.1034C18.0319 13.1617 16.9936 12.8001 16.2119 12.1351C17.4136 11.0617 18.1019 9.45174 17.9619 7.70174C17.8802 6.75674 17.5536 5.89341 17.0636 5.15841C17.5069 4.93674 18.0202 4.79674 18.5452 4.75008C20.8319 4.55174 22.8736 6.25508 23.0719 8.56508Z" fill="url(#paint2_linear_40003020_10444)"/>
<path d="M25.4056 19.3542C25.3123 20.4858 24.5889 21.4658 23.3756 22.1308C22.2089 22.7725 20.7389 23.0758 19.2806 23.0408C20.1206 22.2825 20.6106 21.3375 20.7039 20.3342C20.8206 18.8875 20.1323 17.4992 18.7556 16.3908C17.9739 15.7725 17.0639 15.2825 16.0723 14.9208C18.6506 14.1742 21.8939 14.6758 23.8889 16.2858C24.9623 17.1492 25.5106 18.2342 25.4056 19.3542Z" fill="url(#paint3_linear_40003020_10444)"/>
<defs>
<linearGradient id="paint0_linear_40003020_10444" x1="9.99232" y1="3" x2="9.99232" y2="13.8163" gradientUnits="userSpaceOnUse">
<stop stop-color="#F92772"/>
<stop offset="1" stop-color="#FE6E82"/>
</linearGradient>
<linearGradient id="paint1_linear_40003020_10444" x1="9.98771" y1="15" x2="9.98771" y2="24.7347" gradientUnits="userSpaceOnUse">
<stop stop-color="#F92772"/>
<stop offset="1" stop-color="#FE6E82"/>
</linearGradient>
<linearGradient id="paint2_linear_40003020_10444" x1="19.644" y1="4.73438" x2="19.644" y2="13.7932" gradientUnits="userSpaceOnUse">
<stop stop-color="#F92772"/>
<stop offset="1" stop-color="#FE6E82"/>
</linearGradient>
<linearGradient id="paint3_linear_40003020_10444" x1="20.7381" y1="14.582" x2="20.7381" y2="23.7343" gradientUnits="userSpaceOnUse">
<stop stop-color="#F92772"/>
<stop offset="1" stop-color="#FE6E82"/>
</linearGradient>
</defs>
</svg>
