<svg width="35" height="28" viewBox="0 0 35 28" fill="none" xmlns="http://www.w3.org/2000/svg">
<path d="M21.625 1H13.375L9.25 5.875H4.3C3.42479 5.875 2.58542 6.21741 1.96655 6.8269C1.34768 7.4364 1 8.26305 1 9.125V23.75C1 24.612 1.34768 25.4386 1.96655 26.0481C2.58542 26.6576 3.42479 27 4.3 27H30.7C31.5752 27 32.4146 26.6576 33.0335 26.0481C33.6523 25.4386 34 24.612 34 23.75V9.125C34 8.26305 33.6523 7.4364 33.0335 6.8269C32.4146 6.21741 31.5752 5.875 30.7 5.875H25.75L21.625 1Z" fill="white"/>
<path d="M17.5 20.5C20.2338 20.5 22.45 18.3174 22.45 15.625C22.45 12.9326 20.2338 10.75 17.5 10.75C14.7662 10.75 12.55 12.9326 12.55 15.625C12.55 18.3174 14.7662 20.5 17.5 20.5Z" fill="white"/>
<path d="M21.625 1H13.375L9.25 5.875H4.3C3.42479 5.875 2.58542 6.21741 1.96655 6.8269C1.34768 7.4364 1 8.26305 1 9.125V23.75C1 24.612 1.34768 25.4386 1.96655 26.0481C2.58542 26.6576 3.42479 27 4.3 27H30.7C31.5752 27 32.4146 26.6576 33.0335 26.0481C33.6523 25.4386 34 24.612 34 23.75V9.125C34 8.26305 33.6523 7.4364 33.0335 6.8269C32.4146 6.21741 31.5752 5.875 30.7 5.875H25.75L21.625 1Z" stroke="#F92772" stroke-width="2" stroke-linecap="round" stroke-linejoin="round"/>
<path d="M17.5 20.5C20.2338 20.5 22.45 18.3174 22.45 15.625C22.45 12.9326 20.2338 10.75 17.5 10.75C14.7662 10.75 12.55 12.9326 12.55 15.625C12.55 18.3174 14.7662 20.5 17.5 20.5Z" stroke="#F92772" stroke-width="2" stroke-linecap="round" stroke-linejoin="round"/>
</svg>
