<svg width="28" height="28" viewBox="0 0 28 28" fill="none" xmlns="http://www.w3.org/2000/svg">
<path d="M23.3703 7.95663L16.657 3.25497C14.8272 1.97163 12.0183 2.04163 10.2584 3.40663L4.41925 7.9683C3.25375 8.8783 2.33301 10.745 2.33301 12.215V20.265C2.33301 23.24 4.74559 25.6666 7.71762 25.6666H20.2817C23.2538 25.6666 25.6663 23.2516 25.6663 20.2766V12.3666C25.6663 10.7916 24.6524 8.85497 23.3703 7.95663Z" fill="url(#paint0_linear_40003020_3633)"/>
<path d="M10.5029 17.5003C10.5029 16.856 11.0247 16.3337 11.6684 16.3337H16.3304C16.9741 16.3337 17.4959 16.856 17.4959 17.5003V23.3337C17.4959 23.978 16.9741 24.5003 16.3304 24.5003H13.9994C13.9994 24.5003 12.3121 24.5003 11.6684 24.5003C11.0247 24.5003 10.5029 23.978 10.5029 23.3337V17.5003Z" fill="white"/>
<defs>
<linearGradient id="paint0_linear_40003020_3633" x1="13.9818" y1="2.33594" x2="13.9818" y2="27.5712" gradientUnits="userSpaceOnUse">
<stop stop-color="#F92772"/>
<stop offset="1" stop-color="#FE6E82"/>
</linearGradient>
</defs>
</svg>
