<svg width="28" height="28" viewBox="0 0 28 28" fill="none" xmlns="http://www.w3.org/2000/svg">
<path d="M11.8005 14.9238L4.9755 11.5171C4.4505 11.2488 3.84383 11.2838 3.34216 11.5871C2.84049 11.8905 2.54883 12.4271 2.54883 13.0104V19.4621C2.54883 20.5821 3.16716 21.5855 4.17049 22.0871L10.9955 25.4938C11.2288 25.6104 11.4855 25.6688 11.7422 25.6688C12.0455 25.6688 12.3488 25.5871 12.6172 25.4121C13.1188 25.1088 13.4105 24.5721 13.4105 23.9888V17.5371C13.4222 16.4288 12.8038 15.4255 11.8005 14.9238Z" fill="url(#paint0_linear_40003020_2695)"/>
<path d="M25.9515 13.0066V19.4583C25.9515 20.5666 25.3331 21.5699 24.3298 22.0716L17.5048 25.4899C17.2715 25.6066 17.0148 25.6649 16.7581 25.6649C16.4548 25.6649 16.1515 25.5833 15.8715 25.4083C15.3815 25.1049 15.0781 24.5683 15.0781 23.9849V17.5449C15.0781 16.4249 15.6965 15.4216 16.6998 14.9199L19.2081 13.6716L20.9581 12.7966L23.5248 11.5133C24.0498 11.2449 24.6565 11.2683 25.1581 11.5833C25.6481 11.8866 25.9515 12.4233 25.9515 13.0066Z" fill="url(#paint1_linear_40003020_2695)"/>
<path fill-rule="evenodd" clip-rule="evenodd" d="M22.8248 9.5887C23.3615 9.29703 23.6998 8.72536 23.6998 8.09536C23.6998 7.46536 23.3615 6.8937 22.8248 6.60203L15.4865 2.64703C14.7165 2.22703 13.7831 2.22703 13.0131 2.64703L9.8048 4.3737L7.97314 5.36536L5.6748 6.60203C5.13814 6.8937 4.7998 7.46536 4.7998 8.09536C4.7998 8.72536 5.13814 9.29703 5.6748 9.5887L13.0131 13.5437C13.3981 13.7537 13.8181 13.8587 14.2498 13.8587C14.6815 13.8587 15.1015 13.7537 15.4865 13.5437L19.0681 11.607L19.0683 11.607L19.0684 11.607L20.7951 10.6854C20.795 10.6853 20.795 10.6853 20.795 10.6853L22.8248 9.5887ZM20.795 10.6853C20.725 10.5803 20.6317 10.487 20.5151 10.417L9.80506 4.3737L7.97339 5.36536L19.0683 11.607L20.7948 10.6854L20.795 10.6853Z" fill="url(#paint2_linear_40003020_2695)"/>
<path d="M20.9585 12.7969V15.4452C20.9585 15.9235 20.5618 16.3202 20.0835 16.3202C19.6052 16.3202 19.2085 15.9235 19.2085 15.4452V13.6719L20.9585 12.7969Z" fill="url(#paint3_linear_40003020_2695)"/>
<defs>
<linearGradient id="paint0_linear_40003020_2695" x1="7.9714" y1="11.3359" x2="7.9714" y2="26.8388" gradientUnits="userSpaceOnUse">
<stop stop-color="#F92772"/>
<stop offset="1" stop-color="#FE6E82"/>
</linearGradient>
<linearGradient id="paint1_linear_40003020_2695" x1="20.5064" y1="11.3281" x2="20.5064" y2="26.8353" gradientUnits="userSpaceOnUse">
<stop stop-color="#F92772"/>
<stop offset="1" stop-color="#FE6E82"/>
</linearGradient>
<linearGradient id="paint2_linear_40003020_2695" x1="14.2353" y1="2.33203" x2="14.2353" y2="14.7997" gradientUnits="userSpaceOnUse">
<stop stop-color="#F92772"/>
<stop offset="1" stop-color="#FE6E82"/>
</linearGradient>
<linearGradient id="paint3_linear_40003020_2695" x1="20.0822" y1="12.7969" x2="20.0822" y2="16.6078" gradientUnits="userSpaceOnUse">
<stop stop-color="#F92772"/>
<stop offset="1" stop-color="#FE6E82"/>
</linearGradient>
</defs>
</svg>
