<svg width="46" height="42" viewBox="0 0 46 42" fill="none" xmlns="http://www.w3.org/2000/svg">
<path fill-rule="evenodd" clip-rule="evenodd" d="M8.0069 0.92082C7.68815 1.15414 7.55855 1.5609 7.29936 2.37441L0.506506 23.6947C0.0461643 25.1395 -0.184006 25.8619 0.178385 26.3591C0.540777 26.8562 1.29755 26.8562 2.8111 26.8562H4.90329C5.75549 26.8562 6.18159 26.8562 6.50035 26.6229C6.8191 26.3896 6.94869 25.9828 7.20789 25.1693L14.0007 3.84906C14.4611 2.40421 14.6913 1.68179 14.3289 1.18465C13.9665 0.6875 13.2097 0.6875 11.6961 0.6875H9.60396C8.75176 0.6875 8.32565 0.6875 8.0069 0.92082ZM15.0322 16.8334C15.2914 16.0199 15.421 15.6131 15.7397 15.3798C16.0585 15.1465 16.4846 15.1465 17.3368 15.1465H19.4289C20.9425 15.1465 21.6993 15.1465 22.0617 15.6437C22.4241 16.1408 22.1939 16.8632 21.7335 18.3081L14.9407 39.6283C14.6815 40.4418 14.5519 40.8486 14.2332 41.0819C13.9144 41.3152 13.4883 41.3152 12.6361 41.3152H10.5439C9.03036 41.3152 8.27358 41.3152 7.91119 40.8181C7.5488 40.3209 7.77897 39.5985 8.23931 38.1537L15.0322 16.8334ZM27.6197 15.3798C27.3009 15.6131 27.1713 16.0199 26.9121 16.8334L20.1193 38.1537C19.6589 39.5985 19.4288 40.3209 19.7912 40.8181C20.1536 41.3152 20.9103 41.3152 22.4239 41.3152H24.5161C25.3683 41.3152 25.7944 41.3152 26.1131 41.0819C26.4319 40.8486 26.5615 40.4418 26.8207 39.6283L33.6135 18.3081C34.0739 16.8632 34.304 16.1408 33.9416 15.6437C33.5792 15.1465 32.8225 15.1465 31.3089 15.1465H29.2167C28.3645 15.1465 27.9384 15.1465 27.6197 15.3798ZM39.4997 15.3798C39.1809 15.6131 39.0513 16.0199 38.7921 16.8334L31.9993 38.1537C31.5389 39.5985 31.3087 40.3209 31.6711 40.8181C32.0335 41.3152 32.7903 41.3152 34.3038 41.3152H36.396C37.2482 41.3152 37.6743 41.3152 37.9931 41.0819C38.3118 40.8486 38.4414 40.4418 38.7006 39.6283L45.4935 18.3081C45.9538 16.8632 46.184 16.1408 45.8216 15.6437C45.4592 15.1465 44.7024 15.1465 43.1889 15.1465H41.0967C40.2445 15.1465 39.8184 15.1465 39.4997 15.3798Z" fill="url(#paint0_linear_40003099_11864)"/>
<defs>
<linearGradient id="paint0_linear_40003099_11864" x1="22.9647" y1="0.6875" x2="22.9647" y2="44.6318" gradientUnits="userSpaceOnUse">
<stop stop-color="#F92772"/>
<stop offset="1" stop-color="#FE6E82"/>
</linearGradient>
</defs>
</svg>
