<svg width="28" height="28" viewBox="0 0 28 28" fill="none" xmlns="http://www.w3.org/2000/svg">
<path d="M18.8885 2.33203H9.11183C4.86516 2.33203 2.3335 4.8637 2.3335 9.11036V18.8754C2.3335 23.1337 4.86516 25.6654 9.11183 25.6654H18.8768C23.1235 25.6654 25.6552 23.1337 25.6552 18.887V9.11036C25.6668 4.8637 23.1352 2.33203 18.8885 2.33203ZM10.6285 19.7154C10.6285 20.042 10.3718 20.2987 10.0452 20.2987H6.79016C6.4635 20.2987 6.20683 20.042 6.20683 19.7154V14.3254C6.20683 13.5904 6.80183 12.9954 7.53683 12.9954H10.0452C10.3718 12.9954 10.6285 13.252 10.6285 13.5787V19.7154ZM16.2052 19.7154C16.2052 20.042 15.9485 20.2987 15.6218 20.2987H12.3668C12.0402 20.2987 11.7835 20.042 11.7835 19.7154V10.4987C11.7835 9.7637 12.3785 9.1687 13.1135 9.1687H14.8868C15.6218 9.1687 16.2168 9.7637 16.2168 10.4987V19.7154H16.2052ZM21.7935 19.7154C21.7935 20.042 21.5368 20.2987 21.2102 20.2987H17.9552C17.6285 20.2987 17.3718 20.042 17.3718 19.7154V6.9987C17.3718 6.67203 17.6285 6.41536 17.9552 6.41536H20.4635C21.1985 6.41536 21.7935 7.01036 21.7935 7.74536V19.7154Z" fill="url(#paint0_linear_40003020_7039)"/>
<defs>
<linearGradient id="paint0_linear_40003020_7039" x1="13.9764" y1="2.33203" x2="13.9764" y2="27.5701" gradientUnits="userSpaceOnUse">
<stop stop-color="#F92772"/>
<stop offset="1" stop-color="#FE6E82"/>
</linearGradient>
</defs>
</svg>
