<svg width="28" height="28" viewBox="0 0 28 28" fill="none" xmlns="http://www.w3.org/2000/svg">
<path d="M11.6383 12.832H8.37536C7.59963 12.832 6.97168 13.4023 6.97168 14.1068V19.832H11.6383V12.832V12.832Z" stroke="url(#paint0_linear_40003020_2707)" stroke-width="1.51667" stroke-miterlimit="10" stroke-linecap="round" stroke-linejoin="round"/>
<path d="M14.9135 10.5H13.0419C12.2661 10.5 11.6382 10.9408 11.6382 11.4852V19.8333H16.3049V11.4852C16.3049 10.9408 15.6892 10.5 14.9135 10.5Z" stroke="url(#paint1_linear_40003020_2707)" stroke-width="1.51667" stroke-miterlimit="10" stroke-linecap="round" stroke-linejoin="round"/>
<path d="M19.5676 7H16.3047V19.8333H20.9714V10.2154C20.959 8.43849 20.3311 7 19.5676 7Z" stroke="url(#paint2_linear_40003020_2707)" stroke-width="1.51667" stroke-miterlimit="10" stroke-linecap="round" stroke-linejoin="round"/>
<path d="M10.5002 25.6654H17.5002C23.3335 25.6654 25.6668 23.332 25.6668 17.4987V10.4987C25.6668 4.66536 23.3335 2.33203 17.5002 2.33203H10.5002C4.66683 2.33203 2.3335 4.66536 2.3335 10.4987V17.4987C2.3335 23.332 4.66683 25.6654 10.5002 25.6654Z" stroke="url(#paint3_linear_40003020_2707)" stroke-width="1.75" stroke-linecap="round" stroke-linejoin="round"/>
<defs>
<linearGradient id="paint0_linear_40003020_2707" x1="9.30143" y1="12.832" x2="9.30143" y2="20.4035" gradientUnits="userSpaceOnUse">
<stop stop-color="#F92772"/>
<stop offset="1" stop-color="#FE6E82"/>
</linearGradient>
<linearGradient id="paint1_linear_40003020_2707" x1="13.9679" y1="10.5" x2="13.9679" y2="20.5952" gradientUnits="userSpaceOnUse">
<stop stop-color="#F92772"/>
<stop offset="1" stop-color="#FE6E82"/>
</linearGradient>
<linearGradient id="paint2_linear_40003020_2707" x1="18.6344" y1="7" x2="18.6344" y2="20.881" gradientUnits="userSpaceOnUse">
<stop stop-color="#F92772"/>
<stop offset="1" stop-color="#FE6E82"/>
</linearGradient>
<linearGradient id="paint3_linear_40003020_2707" x1="13.9822" y1="2.33203" x2="13.9822" y2="27.5701" gradientUnits="userSpaceOnUse">
<stop stop-color="#F92772"/>
<stop offset="1" stop-color="#FE6E82"/>
</linearGradient>
</defs>
</svg>
