<svg width="20" height="20" viewBox="0 0 20 20" fill="none" xmlns="http://www.w3.org/2000/svg">
<path d="M19 12.9999L15.914 9.91394C15.5389 9.539 15.0303 9.32837 14.5 9.32837C13.9697 9.32837 13.4611 9.539 13.086 9.91394L4 18.9999M3 1L17 1C18.1046 1 19 1.89543 19 3L19 17C19 18.1046 18.1046 19 17 19L3 19C1.89543 19 1 18.1046 1 17L1 3C1 1.89543 1.89543 1 3 1ZM9 7C9 8.10457 8.10457 9 7 9C5.89543 9 5 8.10457 5 7C5 5.89543 5.89543 5 7 5C8.10457 5 9 5.89543 9 7Z" stroke="black" stroke-width="2" stroke-linecap="round" stroke-linejoin="round"/>
</svg>
