<svg width="24" height="24" viewBox="0 0 24 24" fill="none" xmlns="http://www.w3.org/2000/svg">
<path d="M22.5 15.4999L18.8997 11.8996C18.4621 11.4622 17.8687 11.2164 17.25 11.2164C16.6313 11.2164 16.0379 11.4622 15.6003 11.8996L5 22.4999M3.83333 1.5H20.1667C21.4553 1.5 22.5 2.54467 22.5 3.83333V20.1667C22.5 21.4553 21.4553 22.5 20.1667 22.5H3.83333C2.54467 22.5 1.5 21.4553 1.5 20.1667V3.83333C1.5 2.54467 2.54467 1.5 3.83333 1.5ZM10.8333 8.5C10.8333 9.78866 9.78866 10.8333 8.5 10.8333C7.21134 10.8333 6.16667 9.78866 6.16667 8.5C6.16667 7.21134 7.21134 6.16667 8.5 6.16667C9.78866 6.16667 10.8333 7.21134 10.8333 8.5Z" stroke="#FF8EB2" stroke-width="2.2" stroke-linecap="round" stroke-linejoin="round"/>
</svg>
