<svg width="133" height="133" viewBox="0 0 133 133" fill="none" xmlns="http://www.w3.org/2000/svg">
<path d="M118.057 25.3828L130.791 81.1729L95.1123 125.914H37.8877L2.20801 81.1729L14.9424 25.3828L66.5 0.553711L118.057 25.3828Z" fill="white" stroke="#FFC7D5"/>
<path d="M107.895 33.3018L118.117 77.6689L89.4736 113.251H43.5264L14.8818 77.6689L25.1045 33.3018L66.5 13.5527L107.895 33.3018Z" fill="#FFE1E7" stroke="#FFE1E7"/>
<path d="M97.6211 40.7832L105.431 74.999L83.5488 102.439H48.4512L26.5684 74.999L34.3779 40.7832L66 25.5537L97.6211 40.7832Z" fill="white" stroke="#FFC7D5"/>
<path d="M87.458 48.8887L92.7568 72.1064L77.9072 90.7275H54.0928L39.2422 72.1064L44.541 48.8887L66 38.5537L87.458 48.8887Z" fill="#FFE1E7" stroke="#FFE1E7"/>
<path d="M79.6387 55.1221L83.0078 69.8809L73.5684 81.7178H58.4316L48.9912 69.8809L52.3604 55.1221L66 48.5537L79.6387 55.1221Z" fill="white" stroke="#FFC7D5"/>
</svg>
